<?xml version="1.0" encoding="UTF-8"?>
<svg width="26px" height="24px" viewBox="0 0 26 24" version="1.1" xmlns="http://www.w3.org/2000/svg" xmlns:xlink="http://www.w3.org/1999/xlink">
    <!-- Generator: Sketch 42 (36781) - http://www.bohemiancoding.com/sketch -->
    <title>thumbs-up</title>
    <desc>Created with Sketch.</desc>
    <defs></defs>
    <g id="Page-1" stroke="none" stroke-width="1" fill="none" fill-rule="evenodd">
        <g id="Shaded" transform="translate(-450.000000, -401.000000)">
            <g id="thumbs-up" transform="translate(450.000000, 401.000000)">
                <path d="M23.0439,19.61425 C22.9529,19.49325 22.8129,19.42025 22.6619,19.41425 C22.5129,19.42025 22.3659,19.47225 22.2659,19.58625 C22.0259,19.86225 21.6839,20.00225 21.2459,20.00225 L8.5049,20.00225 C7.0939,20.00225 7.0089,18.74825 7.0059,18.50025 C7.0059,18.22325 6.7819,18.00025 6.5059,18.00025 C6.2299,18.00025 6.0059,18.22325 6.0059,18.50025 L6.0059,19.46625 C6.0049,19.47625 5.9999,19.48425 5.9999,19.49525 C5.9999,19.77025 5.7759,19.99525 5.4999,19.99525 L1.4999,19.99525 C1.2239,19.99525 0.9999,19.77025 0.9999,19.49525 C0.9999,19.21825 0.7759,18.99525 0.4999,18.99525 C0.2239,18.99525 -0.0001,19.21825 -0.0001,19.49525 L-0.0001,21.49525 C-0.0001,22.32225 0.6729,22.99525 1.4999,22.99525 L5.4999,22.99525 C6.0189,22.99525 6.4759,22.73025 6.7459,22.32925 C7.1319,22.71825 7.6899,23.00225 8.5049,23.00225 L21.2459,23.00225 C22.1869,23.00225 22.9349,22.58525 23.2989,21.85925 C23.6509,21.15525 23.5529,20.29525 23.0439,19.61425" id="Fill-1" fill="#938CAA" opacity="0.239999995"></path>
                <path d="M6.5059,20.5061 C6.5059,20.5061 6.5059,22.5081 8.5049,22.5081 L21.2459,22.5081 C23.2449,22.5081 23.6819,20.2561 21.9329,19.2871 C24.0259,19.9751 24.7439,17.0981 23.1199,16.2851 C24.9309,15.8171 25.0879,13.1581 22.8699,12.7521 C24.9309,12.0951 23.9319,9.5001 22.0269,9.5001 L16.4999,9.5001 C15.4999,9.5001 15.4999,8.1661 16.8329,6.8731 C17.8909,5.8471 17.9989,4.4861 17.9989,3.3291 C17.9989,1.9951 17.2799,0.8231 16.1559,0.5411 C15.0319,0.2601 14.3759,1.7771 14.2509,3.0901 C14.1259,4.4031 13.0019,5.4031 11.7839,6.3111 C10.5659,7.2171 9.6919,8.8121 9.0669,9.9061 C8.4429,11.0011 7.5059,11.5011 6.5059,11.5011" id="Stroke-53" stroke="#938CAA" stroke-linecap="round" stroke-linejoin="round"></path>
                <path d="M5.5,22.5012 L1.5,22.5012 C0.948,22.5012 0.5,22.0542 0.5,21.5012 L0.5,11.5012 C0.5,10.9482 0.948,10.5012 1.5,10.5012 L5.5,10.5012 C6.052,10.5012 6.5,10.9482 6.5,11.5012 L6.5,21.5012 C6.5,22.0542 6.052,22.5012 5.5,22.5012 Z" id="Stroke-54" stroke="#938CAA" stroke-linecap="round" stroke-linejoin="round"></path>
                <path d="M4.5,19.5012 C4.5,20.0542 4.052,20.5012 3.5,20.5012 C2.948,20.5012 2.5,20.0542 2.5,19.5012 C2.5,18.9482 2.948,18.5012 3.5,18.5012 C4.052,18.5012 4.5,18.9482 4.5,19.5012 Z" id="Stroke-55" stroke="#938CAA" stroke-linecap="round" stroke-linejoin="round"></path>
            </g>
        </g>
    </g>
</svg>